<svg width="22" height="16" viewBox="0 0 22 16" fill="none" xmlns="http://www.w3.org/2000/svg">
<path d="M0.916016 2.27079V4.10413L3.01862 6.13913L5.49935 7.54163L5.95768 4.4559L5.49935 1.58329L4.21602 0.620795C2.85591 -0.398997 0.916016 0.571524 0.916016 2.27079Z" fill="#C5221F"/>
<path d="M16.4993 1.58329L16.041 4.49371L16.4993 7.54163L18.7509 6.42673L21.0827 4.10413V2.27079C21.0827 0.571524 19.1428 -0.398997 17.7827 0.620795L16.4993 1.58329Z" fill="#FBBC04"/>
<path d="M2.29102 15.3333H5.49935V7.54163L0.916016 4.10413V13.9583C0.916016 14.718 1.53133 15.3333 2.29102 15.3333Z" fill="#4285F4"/>
<path d="M16.5 15.3333H19.7083C20.468 15.3333 21.0833 14.718 21.0833 13.9583V4.10413L16.5 7.54163V15.3333Z" fill="#34A853"/>
<path d="M11 5.70825L5.5 1.58325V7.54158L11 11.6666L16.5 7.54158V1.58325L11 5.70825Z" fill="#EA4335"/>
</svg>
