<svg width="16" height="17" viewBox="0 0 16 17" fill="none" xmlns="http://www.w3.org/2000/svg">
<path d="M8 1.16666L13.4779 2.38398C13.783 2.45176 14 2.7223 14 3.03477V9.69259C14 11.03 13.3316 12.2789 12.2188 13.0208L8 15.8333L3.7812 13.0208C2.66841 12.2789 2 11.03 2 9.69259V3.03477C2 2.7223 2.21702 2.45176 2.52205 2.38398L8 1.16666ZM8 2.53252L3.33333 3.56955V9.69259C3.33333 10.5842 3.77893 11.4168 4.5208 11.9114L8 14.2309L11.4792 11.9114C12.2211 11.4168 12.6667 10.5842 12.6667 9.69259V3.56955L8 2.53252ZM10.9683 5.98121L11.9111 6.92402L7.6684 11.1667L4.83999 8.33826L5.78281 7.39539L7.66793 9.28059L10.9683 5.98121Z" fill="#00AEB6"/>
</svg>
